<?xml version="1.0" standalone="no"?>
<!DOCTYPE svg PUBLIC "-//W3C//DTD SVG 20010904//EN"
 "http://www.w3.org/TR/2001/REC-SVG-20010904/DTD/svg10.dtd">
<svg version="1.0" xmlns="http://www.w3.org/2000/svg"
 width="962.000000pt" height="962.000000pt" viewBox="0 0 962.000000 962.000000"
 preserveAspectRatio="xMidYMid meet">

<g transform="translate(0.000000,962.000000) scale(0.100000,-0.100000)"
fill="#000000" stroke="#5CE1E6">
<path d="M0 4810 l0 -4810 4810 0 4810 0 0 4810 0 4810 -4810 0 -4810 0 0
-4810z m5094 2467 c245 -227 288 -277 240 -277 -9 0 -68 48 -132 108 -63 59
-176 162 -250 230 l-136 122 -25 -23 c-326 -298 -483 -437 -495 -437 -20 0
-29 17 -19 33 8 13 226 216 388 362 50 44 103 92 119 107 17 15 35 24 42 20 6
-4 127 -114 268 -245z m-1775 -313 c44 -56 8 -138 -62 -138 -67 0 -105 96 -57
144 31 31 93 27 119 -6z m3106 1 c50 -49 17 -134 -47 -121 -16 3 -27 2 -23 -3
9 -16 -23 -6 -45 14 -35 32 -22 107 23 125 38 15 67 11 92 -15z m-2248 -51 c7
-18 -112 -133 -138 -134 -33 0 -29 29 9 64 101 92 117 101 129 70z m1374 -42
c45 -42 61 -63 56 -75 -10 -27 -28 -19 -96 43 -55 50 -63 61 -51 74 7 9 16 16
21 16 5 0 36 -26 70 -58z m-1619 -169 c10 -9 18 -21 18 -27 0 -10 -62 -66 -73
-66 -3 0 -10 14 -16 31 -9 27 -8 33 14 55 29 28 33 29 57 7z m-142 -8 c84 -43
42 -185 -55 -185 -48 0 -78 18 -95 59 -39 95 56 175 150 126z m1963 -9 c23
-22 25 -27 15 -54 l-12 -31 -26 19 c-45 32 -53 46 -40 69 14 27 31 26 63 -3z
m218 -5 c23 -23 29 -38 29 -71 0 -102 -139 -139 -186 -49 -37 73 7 149 86 149
33 0 48 -6 71 -29z m-846 -21 c511 -109 920 -432 1146 -905 62 -129 116 -281
126 -353 l6 -43 -38 3 -39 3 -41 120 c-39 113 -95 228 -80 164 4 -18 1 -32
-10 -43 -11 -10 -14 -23 -9 -34 4 -9 9 -30 10 -47 l3 -30 -11 30 c-6 16 -15
34 -20 40 -4 5 -29 51 -55 100 -94 184 -204 321 -358 450 -83 70 -122 98 -180
129 -27 15 -63 36 -80 47 -29 19 -99 53 -142 70 -12 4 -25 5 -27 0 -3 -4 37
-29 89 -55 51 -25 108 -58 124 -72 17 -14 31 -23 31 -19 0 11 80 -55 168 -139
100 -96 218 -255 277 -374 49 -98 115 -282 115 -318 0 -23 -2 -24 -82 -24 -46
0 -100 -3 -120 -6 -36 -6 -38 -8 -38 -45 l0 -39 135 0 135 0 0 -54 0 -53
-1340 -2 -1340 -2 0 43 c0 24 4 48 8 55 5 9 53 13 157 15 l150 3 0 40 0 40
-142 3 c-167 3 -159 -7 -113 132 67 204 173 381 319 533 136 141 319 268 459
317 62 22 72 29 54 34 -66 21 -335 -131 -489 -277 -208 -197 -343 -431 -419
-724 -2 -10 -36 -13 -124 -13 -111 0 -121 2 -116 18 2 9 14 53 26 97 105 383
374 748 710 964 171 110 414 202 620 236 126 21 414 13 545 -15z m-1445 -210
c0 -3 -87 -94 -193 -201 -198 -199 -274 -289 -387 -457 l-65 -97 -95 -3 c-113
-3 -140 2 -140 27 0 26 19 31 121 31 l88 0 53 78 c119 177 247 323 477 545 92
89 115 106 127 96 8 -6 14 -15 14 -19z m2408 -63 c233 -224 370 -378 482 -544
l62 -93 83 0 c96 0 115 -5 115 -30 0 -25 -19 -30 -120 -30 -93 0 -106 5 -131
53 -59 112 -256 345 -466 550 -142 140 -177 187 -138 187 8 0 59 -42 113 -93z
m-3397 -653 c11 -14 10 -18 -6 -30 -15 -11 -51 -14 -150 -13 -161 1 -185 5
-185 29 0 10 6 20 13 23 6 3 80 5 163 6 129 1 153 -1 165 -15z m4577 -10 c2
-14 -3 -23 -15 -26 -29 -7 -311 -4 -318 4 -4 3 -4 15 -1 26 6 18 16 19 169 18
157 -1 162 -2 165 -22z m-4486 -321 c24 -30 -6 -33 -323 -33 -311 0 -319 1
-319 20 0 18 8 20 118 23 253 7 513 2 524 -10z m148 2 c16 -19 4 -35 -26 -35
-17 0 -24 6 -24 18 0 34 28 43 50 17z m141 5 c36 -20 23 -40 -26 -40 -38 0
-45 3 -45 19 0 29 36 39 71 21z m3533 4 c19 -7 21 -40 3 -47 -21 -8 -65 4 -71
19 -9 23 34 41 68 28z m879 -4 c4 0 7 -9 7 -20 0 -20 -7 -20 -320 -20 -285 0
-321 2 -327 16 -3 9 -1 19 5 23 5 3 149 5 319 4 169 -2 311 -3 316 -3z m-743
-20 c0 -15 -7 -20 -25 -20 -18 0 -25 5 -25 20 0 15 7 20 25 20 18 0 25 -5 25
-20z m-3308 -170 c-2 -24 -4 -45 -5 -46 -1 -1 -53 -4 -114 -8 l-113 -7 0 40
c0 72 -1 72 124 69 l111 -3 -3 -45z m2930 14 c-3 -18 -1 -25 6 -20 6 3 13 2
16 -3 3 -5 -3 -11 -14 -14 -17 -4 -20 0 -20 29 0 19 4 34 9 34 4 0 6 -12 3
-26z m67 -31 c-1 -25 -3 -30 -6 -15 -3 13 -11 26 -20 29 -12 5 -12 7 -1 14 23
15 28 10 27 -28z m-1988 -253 l179 0 0 -45 0 -45 -145 0 -145 0 0 -270 0 -270
146 0 145 0 -3 -47 -3 -48 -195 0 -195 0 -3 355 c-1 195 0 361 3 368 3 8 12
11 21 8 9 -3 96 -6 195 -6z m-1943 -103 c35 -56 73 -119 85 -139 l22 -37 85
137 85 137 53 3 52 3 -2 -363 -3 -363 -50 0 -50 0 -6 240 c-4 132 -7 242 -8
245 -1 3 -14 -15 -29 -40 -80 -130 -69 -120 -123 -120 l-48 0 -53 78 -53 77
-3 -243 -2 -243 -53 3 -52 3 -3 363 -2 362 47 0 48 0 63 -103z m853 33 c9 -36
48 -186 87 -335 39 -148 74 -282 78 -297 6 -28 6 -28 -49 -28 l-56 0 -15 53
c-8 28 -19 68 -23 87 l-9 35 -117 3 -116 3 -11 -43 c-6 -24 -17 -63 -23 -88
l-13 -45 -54 0 c-31 0 -54 4 -54 10 3 18 165 649 175 683 l11 33 86 -3 86 -3
17 -65z m709 65 c0 -3 -11 -23 -25 -45 l-25 -39 -127 -3 -128 -3 -3 -267 -2
-268 95 0 96 0 -3 103 c-3 101 -3 102 -28 102 -30 0 -34 6 -25 48 10 43 18 47
98 47 l67 0 0 -195 0 -195 -26 -6 c-32 -8 -313 1 -337 11 -43 18 -47 48 -47
359 l0 294 26 31 26 31 184 0 c101 0 184 -2 184 -5z m1490 -40 l0 -45 -105 0
-105 0 -2 -317 -3 -318 -52 -3 -53 -3 -2 318 -3 318 -107 3 -108 3 0 44 0 45
270 0 270 0 0 -45z m310 -110 l0 -155 115 0 115 0 0 155 0 155 55 0 55 0 -2
-362 -3 -363 -52 -3 -53 -3 0 160 0 161 -115 0 -115 0 0 -160 0 -160 -55 0
-55 0 0 365 0 365 55 0 55 0 0 -155z m930 110 l0 -44 -142 -3 -143 -3 0 -265
0 -265 143 -3 142 -3 0 -51 0 -51 -170 5 c-161 5 -172 6 -195 28 l-25 23 0
316 c0 398 -22 361 217 361 l173 0 0 -45z m290 -105 l0 -150 100 0 100 0 0
150 0 150 55 0 55 0 -2 -362 -3 -363 -52 -3 -53 -3 -2 173 -3 173 -95 0 -95 0
-5 -170 -5 -170 -52 -3 -53 -3 0 365 0 366 55 0 55 0 0 -150z m-2462 -192 l-3
-43 -81 -3 -82 -3 -31 40 c-17 21 -31 42 -31 45 0 3 52 6 116 6 l115 0 -3 -42z
m420 -335 l-3 -48 -120 -3 c-153 -4 -185 2 -185 31 0 12 3 32 6 45 6 22 9 22
156 22 l149 0 -3 -47z m472 -243 c-102 -3 -150 -7 -107 -8 55 -1 76 -6 75 -14
-2 -8 5 -12 17 -10 16 2 17 1 5 -7 -8 -5 -27 -7 -42 -4 -23 5 -27 3 -22 -11 4
-10 1 -16 -9 -16 -8 0 -28 -7 -43 -15 l-29 -15 35 -2 c142 -7 -371 -16 -998
-17 l-754 -1 -73 58 c-41 31 -74 60 -74 65 -1 4 495 6 1102 5 606 -1 1019 -5
917 -8z m-210 -230 c-135 -3 -252 -9 -261 -15 -25 -16 -79 -63 -79 -70 0 -3 9
-1 19 5 23 12 31 13 30 3 -4 -27 6 -31 109 -33 59 -2 119 -4 135 -5 15 -1 82
-4 150 -5 l122 -3 -175 -7 c-259 -9 -1281 -12 -1541 -4 l-227 7 -61 54 c-34
30 -61 61 -61 69 0 12 148 14 1043 12 573 -1 932 -4 797 -8z m1170 -25 c10
-12 10 -15 -4 -15 -9 0 -16 7 -16 15 0 8 2 15 4 15 2 0 9 -7 16 -15z"/>
<path d="M6394 6865 c-10 -8 -14 -15 -8 -15 6 0 17 7 24 15 16 19 9 19 -16 0z"/>
<path d="M3687 6652 c-10 -10 -17 -28 -17 -40 0 -28 34 -62 60 -62 27 0 60 35
60 63 0 50 -70 76 -103 39z"/>
<path d="M5856 6654 c-35 -34 -6 -104 43 -104 15 0 35 8 44 18 24 26 22 79 -2
92 -29 15 -67 12 -85 -6z"/>
<path d="M4595 6443 c-34 -9 -68 -23 -64 -28 2 -2 51 5 109 15 l105 18 -65 0
c-36 0 -74 -3 -85 -5z"/>
<path d="M4928 6443 c12 -2 30 -2 40 0 9 3 -1 5 -23 4 -22 0 -30 -2 -17 -4z"/>
<path d="M4998 6433 c6 -2 18 -2 25 0 6 3 1 5 -13 5 -14 0 -19 -2 -12 -5z"/>
<path d="M5058 6423 c6 -2 18 -2 25 0 6 3 1 5 -13 5 -14 0 -19 -2 -12 -5z"/>
<path d="M4442 6398 c-5 -5 -18 -10 -30 -11 -11 0 -19 -4 -16 -8 2 -4 28 -1
57 7 75 22 76 22 35 21 -21 0 -41 -4 -46 -9z"/>
<path d="M4145 5359 c-4 -6 -28 -9 -54 -7 l-46 3 -3 -42 -3 -43 744 0 743 0
29 -30 c16 -16 32 -30 37 -30 4 0 8 14 8 30 0 26 4 30 28 30 42 0 53 12 46 48
-5 27 -11 32 -35 32 -15 0 -30 4 -33 8 -3 4 -44 7 -93 6 -184 -5 -1336 -4
-1341 1 -9 8 -20 6 -27 -6z"/>
<path d="M3202 4677 c-23 -91 -42 -171 -42 -177 0 -6 35 -10 89 -10 l89 0 -43
166 c-24 91 -45 170 -48 177 -2 6 -22 -64 -45 -156z"/>
</g>
</svg>
